# xmcd CD database file
#
# Track frame offsets:
#	150
#	11231
#	17042
#	29434
#	40545
#	50146
#	55165
#	59070
#	69134
#	82824
#	96114
#	106570
#	124121
#	135389
#	148686
#	164035
#	177977
#	191245
#	205902
#	220444
#	236966
#
# Disc length: 3322 seconds
#
# Revision: 2
# Processed by: cddbd v1.5.2PL0 Copyright (c) Steve Scherf et al.
# Submitted via: CDex 1.70beta2
#
DISCID=330cf815
DTITLE=Die Könige der Nutzholzgewinnung - Die Könige der Nutzholzgewinnung-Orginal Soundtrack
DYEAR=2006
DGENRE=Country
TTITLE0=Out Of Air
TTITLE1=Backscratch
TTITLE2=Let You Down
TTITLE3=Woodman
TTITLE4=Buffalo Gals(Traditional)
TTITLE5=Ten Pound Hammer
TTITLE6=Dixie Guitar
TTITLE7=Broken Day
TTITLE8=Go Dixie(Traditional)
TTITLE9=In The Name Of The Lord
TTITLE10=Down To The Station
TTITLE11=Just Because(I Said Yes)
TTITLE12=Find My Way
TTITLE13=Lord Guitar
TTITLE14=Miles And Miles
TTITLE15=More Pretty Gals(Traditional)
TTITLE16=Sin To Tell A Lie(Traditional)
TTITLE17=Tennesee Waltz(Traditional)
TTITLE18=Jodler
TTITLE19=Chainsaw Man
TTITLE20=Let You Down(Vocal)
EXTD=YEAR: 2006
EXTT0=
EXTT1=
EXTT2=
EXTT3=
EXTT4=
EXTT5=
EXTT6=
EXTT7=
EXTT8=
EXTT9=
EXTT10=
EXTT11=
EXTT12=
EXTT13=
EXTT14=
EXTT15=
EXTT16=
EXTT17=
EXTT18=
EXTT19=
EXTT20=
PLAYORDER=
